<?xml version="1.0" standalone="no"?>
<!DOCTYPE svg PUBLIC "-//W3C//DTD SVG 20010904//EN"
 "http://www.w3.org/TR/2001/REC-SVG-20010904/DTD/svg10.dtd">
<svg version="1.0" xmlns="http://www.w3.org/2000/svg"
 width="1378.000000pt" height="1378.000000pt" viewBox="0 0 1378.000000 1378.000000"
 preserveAspectRatio="xMidYMid meet">
<metadata>
Created by potrace 1.11, written by Peter Selinger 2001-2013
</metadata>
<g transform="translate(0.000000,1378.000000) scale(0.100000,-0.100000)"
fill="#000000" stroke="none">
<path d="M6615 10814 c-1255 -102 -2380 -760 -3074 -1799 -350 -524 -565
-1098 -653 -1745 -20 -144 -22 -209 -23 -510 0 -303 3 -365 23 -510 105 -772
390 -1441 868 -2040 138 -173 441 -476 614 -614 599 -478 1269 -764 2030 -867
199 -26 636 -37 843 -20 823 69 1582 371 2227 887 174 139 476 441 614 614
478 599 763 1268 868 2040 20 145 23 207 23 510 -1 380 -13 517 -75 821 -324
1582 -1584 2841 -3163 3159 -286 58 -423 71 -762 75 -170 1 -332 1 -360 -1z
m1410 -584 c3 -5 20 -10 36 -10 33 0 74 -39 96 -93 11 -25 15 -436 13 -1343 0
-58 -2 -64 -39 -103 -38 -41 -39 -41 -111 -41 -67 0 -75 2 -97 28 -62 69 -57
13 -60 746 -1 449 2 683 9 706 13 43 42 76 88 100 42 21 57 24 65 10z m-2179
-45 c56 -46 79 -93 69 -143 -4 -20 -6 -46 -5 -57 6 -78 4 -174 -4 -192 -6 -15
-5 -27 3 -36 8 -10 11 -148 10 -505 -1 -454 -2 -494 -19 -529 -33 -68 -98 -98
-187 -86 -35 5 -41 10 -61 55 -12 27 -22 54 -22 59 0 5 -7 20 -15 33 -13 20
-15 112 -16 680 l0 657 26 30 c14 17 25 34 25 38 0 13 54 29 104 30 42 1 55
-4 92 -34z m1805 -144 l116 -1 -3 -247 c-2 -137 -4 -252 -4 -258 0 -5 2 -101
5 -211 3 -111 2 -218 -2 -239 -5 -20 -4 -72 1 -116 6 -49 6 -93 0 -115 l-9
-37 -240 -2 c-132 -1 -248 -5 -257 -9 -19 -8 -19 -12 -22 -86 l-1 -45 -50 -5
-50 -5 -3 -1152 -2 -1153 -210 0 -210 0 0 1143 c0 876 -3 1146 -12 1155 -7 7
-31 12 -54 12 l-42 0 -4 55 c-8 96 2 93 -301 89 -144 -2 -269 -1 -277 1 -14 4
-16 75 -15 612 l0 608 465 5 c405 4 587 4 1181 1z m-2191 -1910 l0 -220 -39
-45 c-91 -104 -212 -286 -258 -386 -7 -14 -28 -59 -47 -101 -20 -42 -36 -83
-36 -92 0 -9 -4 -19 -10 -22 -5 -3 -10 -16 -10 -29 0 -12 -4 -26 -9 -31 -12
-13 -57 -200 -70 -290 -20 -139 -27 -285 -19 -411 11 -173 56 -413 89 -476 5
-10 9 -25 9 -33 0 -8 4 -23 9 -33 5 -9 13 -28 18 -42 5 -14 22 -50 36 -80 15
-30 27 -60 27 -67 0 -6 4 -13 8 -15 4 -1 20 -28 35 -58 95 -193 297 -437 475
-574 146 -112 178 -135 185 -136 5 0 21 -9 36 -19 37 -27 257 -136 306 -152
22 -7 44 -17 49 -21 6 -4 18 -8 28 -8 10 0 26 -4 36 -9 22 -13 207 -56 298
-71 92 -15 470 -14 554 0 156 28 337 75 415 110 68 30 183 82 199 91 10 6 35
20 55 31 285 157 570 441 726 723 46 83 95 180 95 188 0 4 9 26 19 50 124 277
165 658 112 1032 -10 66 -15 91 -40 192 -13 51 -46 143 -72 200 -10 24 -19 46
-19 50 0 9 -72 155 -80 163 -3 3 -12 19 -20 35 -17 33 -54 93 -70 112 -5 7
-10 15 -10 18 0 3 -34 47 -75 98 l-75 91 0 230 0 229 23 -19 c59 -50 249 -247
298 -309 51 -64 137 -185 149 -210 6 -12 69 -117 92 -153 9 -15 17 -34 17 -44
1 -9 5 -18 9 -20 4 -1 25 -46 46 -98 53 -131 53 -131 64 -165 62 -195 91 -330
102 -478 4 -60 13 -114 19 -120 15 -15 15 -234 0 -239 -6 -2 -14 -53 -19 -118
-5 -63 -11 -124 -14 -135 -3 -11 -15 -62 -26 -114 -12 -52 -28 -115 -36 -140
-8 -25 -19 -62 -25 -81 -6 -19 -14 -44 -19 -55 -4 -11 -25 -63 -46 -115 -40
-100 -93 -207 -125 -252 -11 -14 -19 -29 -19 -33 0 -9 -122 -186 -169 -245
-86 -107 -264 -284 -361 -357 -68 -51 -210 -150 -245 -169 -11 -6 -40 -22 -65
-36 -123 -68 -163 -88 -179 -88 -9 0 -21 -4 -27 -9 -11 -10 -182 -74 -244 -91
-25 -7 -55 -16 -68 -21 -13 -5 -33 -9 -44 -9 -12 0 -35 -4 -52 -9 -68 -21
-137 -32 -241 -41 -62 -5 -111 -13 -113 -19 -5 -16 -239 -15 -244 0 -2 7 -49
15 -118 21 -63 4 -128 12 -145 17 -16 5 -57 14 -90 21 -33 7 -88 21 -122 31
-34 10 -69 19 -78 19 -8 0 -23 4 -33 9 -9 5 -37 17 -62 26 -114 44 -127 49
-200 84 -107 51 -288 157 -310 181 -3 3 -36 28 -75 55 -183 129 -394 357 -538
580 -61 96 -146 253 -167 310 -4 11 -13 34 -20 50 -7 17 -23 62 -37 100 -13
39 -28 79 -33 90 -5 11 -11 31 -13 45 -3 14 -12 50 -20 80 -8 30 -22 100 -31
155 -10 55 -22 110 -27 123 -12 30 -12 480 0 518 5 16 17 72 26 124 29 164 56
261 131 465 40 107 226 444 263 475 3 3 29 35 56 72 54 73 316 338 334 338 8
0 11 -70 11 -219z"/>
</g>
</svg>
