<?xml version="1.0" encoding="utf-8"?>
<!-- Generator: Adobe Illustrator 19.2.1, SVG Export Plug-In . SVG Version: 6.00 Build 0)  -->
<svg version="1.1" id="layer" xmlns="http://www.w3.org/2000/svg" xmlns:xlink="http://www.w3.org/1999/xlink" x="0px" y="0px"
	 viewBox="0 0 652 652" style="enable-background:new 0 0 652 652;" xml:space="preserve">
<style type="text/css">
	.st0{fill:#0193CF;}
	.st1{fill:url(#SVGID_1_);stroke:#0093D0;stroke-width:1.172;}
	.st2{fill:url(#SVGID_2_);stroke:#0093D0;stroke-width:1.172;}
	.st3{fill:url(#SVGID_3_);stroke:#0093D0;stroke-width:1.172;}
	.st4{fill:url(#SVGID_4_);stroke:#0093D0;stroke-width:1.172;}
</style>
<g id="Layer_2">
	<g id="Layer_1-2">
		<path class="st0" d="M371.5,269.1l5.5,81.8h-15.9l-2.9-68.9h-1.5L338,350.9h-18.9L301,282h-1.5l-4,68.9H282l5.4-81.8h26.3
			l15.3,62.6h1.5l15.9-62.6H371.5z"/>
		<path class="st0" d="M414.9,352.2c-14.8-0.2-28.3-2.8-28.3-19.9c0-19.4,22.7-18.6,40-18.6c0-9.6-0.1-13.9-15.2-13.9
			c-7,0.1-13.9,0.8-20.7,2.2v-11.6c7.1-1.4,14.4-2.1,21.6-2.2c14.6-0.1,30.8,1.5,30.8,20.4v42C433.8,351.8,424.4,352.3,414.9,352.2z
			 M426.6,324.4c-2.1-0.1-7.8-0.1-9.6-0.1c-6.9,0-13,0.5-13,8.6s6.1,8.6,13,8.6c3.2,0,6.4-0.2,9.6-0.7V324.4z"/>
		<path class="st0" d="M486.2,352.2c-20.4,0-34.9-11-34.9-33.1c0-20,15.6-30.8,34.2-30.8c6-0.1,11.9,0.5,17.8,1.7v11
			c-3.8-0.5-7.5-0.8-11.3-0.8c-15.5,0-23.3,4.9-23.3,19.8s7.7,20.1,23.3,20.1c3.9,0,7.9-0.3,11.8-0.9v11.1
			C498,351.6,492.1,352.2,486.2,352.2z"/>
		<path class="st0" d="M532.1,306.6v44.3h-16.6v-61.3h14.7c0,0-0.1,5.6,0,5.6c11-6.6,18.2-6.1,24-6.1v13.6
			C548.1,302.6,538.1,302.4,532.1,306.6z"/>
		<path class="st0" d="M588.5,352.2c-20.8,0-32.7-13-32.7-32c0-19.5,12-32,32.7-32c20.4,0,32.5,12.5,32.5,32
			C620.9,339.2,607.4,352.2,588.5,352.2z M588.4,299.7c-11.7,0-15.4,7.1-15.4,20.7c0,13.6,3.7,20.6,15.4,20.6s15.3-7.1,15.3-20.6
			C603.7,307,599.9,299.7,588.4,299.7L588.4,299.7z"/>
		
			<linearGradient id="SVGID_1_" gradientUnits="userSpaceOnUse" x1="131.4341" y1="365.3476" x2="131.4341" y2="332.5305" gradientTransform="matrix(1 0 0 -1 0 651.89)">
			<stop  offset="9.000000e-002" style="stop-color:#FFFFFF"/>
			<stop  offset="0.17" style="stop-color:#F7FBFD"/>
			<stop  offset="0.31" style="stop-color:#E0EEF8"/>
			<stop  offset="0.38" style="stop-color:#D0E6F4"/>
			<stop  offset="1" style="stop-color:#0093D0"/>
		</linearGradient>
		<path class="st1" d="M164.2,319.4c-0.4-18.1-15.4-32.5-33.6-32.1c-17.5,0.4-31.7,14.5-32.1,32.1H164.2z"/>
		
			<linearGradient id="SVGID_2_" gradientUnits="userSpaceOnUse" x1="131.4341" y1="1012.8197" x2="131.4341" y2="980.0195" gradientTransform="matrix(1 0 0 1 0 -660.66)">
			<stop  offset="9.000000e-002" style="stop-color:#FFFFFF"/>
			<stop  offset="0.17" style="stop-color:#F7FBFD"/>
			<stop  offset="0.31" style="stop-color:#E0EEF8"/>
			<stop  offset="0.38" style="stop-color:#D0E6F4"/>
			<stop  offset="1" style="stop-color:#0093D0"/>
		</linearGradient>
		<path class="st2" d="M164.2,319.4c-0.4,18.1-15.4,32.5-33.6,32.1c-17.5-0.4-31.7-14.5-32.1-32.1H164.2z"/>
		
			<linearGradient id="SVGID_3_" gradientUnits="userSpaceOnUse" x1="131.4341" y1="404.2288" x2="131.4341" y2="332.5305" gradientTransform="matrix(1 0 0 -1 0 651.89)">
			<stop  offset="9.000000e-002" style="stop-color:#FFFFFF"/>
			<stop  offset="0.2" style="stop-color:#F7FBFD"/>
			<stop  offset="0.38" style="stop-color:#E0EEF8"/>
			<stop  offset="0.48" style="stop-color:#D0E6F4"/>
			<stop  offset="1" style="stop-color:#0093D0"/>
		</linearGradient>
		<path class="st3" d="M203.1,319.4c-0.6-39.6-33.2-71.2-72.8-70.6c-38.7,0.6-70,31.9-70.6,70.6h33c0.4-21.4,18.2-38.4,39.6-37.9
			c20.8,0.4,37.5,17.2,37.9,37.9H203.1z"/>
		
			<linearGradient id="SVGID_4_" gradientUnits="userSpaceOnUse" x1="131.4426" y1="443.0081" x2="131.4426" y2="332.9721" gradientTransform="matrix(1 0 0 -1 0 651.89)">
			<stop  offset="9.000000e-002" style="stop-color:#FFFFFF"/>
			<stop  offset="0.2" style="stop-color:#F7FBFD"/>
			<stop  offset="0.38" style="stop-color:#E0EEF8"/>
			<stop  offset="0.48" style="stop-color:#D0E6F4"/>
			<stop  offset="1" style="stop-color:#0093D0"/>
		</linearGradient>
		<path class="st4" d="M241.9,319.4c0-61-49.5-110.5-110.5-110.5S21,258.3,21,319.4h32.8c0-42.9,34.7-77.7,77.6-77.7
			s77.7,34.7,77.7,77.6c0,0,0,0,0,0H241.9z"/>
		<path class="st0" d="M39.7,392.6V424h-4v-31.4H24.8v-3.2h25.7v3.2H39.7z"/>
		<path class="st0" d="M69.4,424v-3.1c-1,0.6-2.1,1.2-3.2,1.8c-0.8,0.4-1.7,0.8-2.6,1.1c-0.8,0.2-1.6,0.4-2.4,0.5
			c-0.8,0-1.5,0.1-2.4,0.1c-0.9,0-1.7-0.1-2.6-0.4c-0.8-0.2-1.6-0.6-2.3-1.2c-0.7-0.7-1.3-1.5-1.6-2.4c-0.4-1.2-0.7-2.5-0.6-3.8V398
			h3.8v16.3c0,0.8,0,1.6,0,2.4c0,0.8,0.2,1.5,0.5,2.2c0.3,0.7,0.7,1.2,1.3,1.6c0.8,0.5,1.7,0.7,2.6,0.6c0.9,0,1.8-0.1,2.7-0.3
			c0.8-0.2,1.6-0.4,2.3-0.7c0.7-0.3,1.4-0.6,2-0.9c0.6-0.3,1.2-0.6,1.8-0.9V398h3.8V424H69.4z"/>
		<path class="st0" d="M124.1,414.9c0,1.3-0.2,2.5-0.6,3.7c-0.4,1.1-1.1,2.1-2.1,2.9c-1.1,0.9-2.4,1.5-3.7,1.9
			c-1.8,0.5-3.7,0.7-5.6,0.7h-11.5v-34.6h11.1c1.8,0,3.7,0.2,5.4,0.7c1.2,0.3,2.4,0.9,3.4,1.7c0.8,0.7,1.5,1.6,1.8,2.6
			c0.7,2.2,0.7,4.6,0,6.8c-0.3,0.9-0.8,1.7-1.5,2.3c-0.6,0.6-1.4,1.2-2.2,1.5c-0.9,0.4-1.8,0.7-2.7,1v0.5c1,0.2,2,0.5,2.9,0.8
			c0.9,0.3,1.8,0.8,2.6,1.4c0.8,0.7,1.4,1.5,1.8,2.4C123.8,412.3,124.1,413.6,124.1,414.9z M119,398c0.1-1.2-0.3-2.3-0.9-3.3
			c-0.6-0.8-1.4-1.3-2.3-1.7c-0.9-0.3-1.9-0.6-2.8-0.6c-1,0-1.9-0.1-2.6-0.1h-5.8v12.3h5.6c1,0,2-0.1,3-0.3c1-0.2,2-0.5,2.8-1
			c0.9-0.5,1.6-1.2,2.1-2.1c0.6-1,0.9-2.2,0.8-3.4H119z M119.9,414.4c0.1-1.2-0.2-2.4-0.8-3.4c-0.5-0.8-1.3-1.5-2.2-2
			c-0.9-0.5-2-0.8-3-1c-1.1-0.2-2.3-0.3-3.4-0.3h-6v13.2h6.3c1.1,0,2.3-0.1,3.4-0.2c1-0.1,2-0.4,2.9-0.9c0.8-0.5,1.5-1.1,2-2
			C119.7,416.7,119.9,415.6,119.9,414.4L119.9,414.4z"/>
		<path class="st0" d="M152.4,424c-2,0.2-3.8,0.4-5.5,0.4c-1.7,0.1-3.4,0.1-5.2,0.1c-1.5,0-3-0.1-4.5-0.3c-1.2-0.2-2.4-0.6-3.4-1.3
			c-0.9-0.6-1.7-1.5-2.2-2.5c-0.6-1.3-0.8-2.7-0.8-4.2c-0.3-3,1.6-5.8,4.4-6.8c1.4-0.5,2.8-0.8,4.2-0.9c1.5-0.1,3-0.2,4.4-0.2
			c0.7,0,1.4,0,2.2,0s1.7,0,2.6,0c0-1.7,0-3.1-0.1-4.1c0-0.9-0.3-1.8-0.9-2.5c-0.6-0.7-1.5-1.1-2.4-1.3c-1.5-0.3-3.1-0.4-4.6-0.3
			c-1.4,0-2.8,0.1-4.2,0.3l-3.8,0.6v-2.9c2.8-0.6,5.6-0.8,8.5-0.8c1.6,0,3.2,0.1,4.8,0.3c1.2,0.1,2.4,0.5,3.5,1.1
			c1,0.6,1.7,1.5,2.2,2.5c0.6,1.4,0.8,2.9,0.8,4.4L152.4,424z M148.6,411.2c-1.2,0-2.2,0-3.1,0s-1.5,0-1.9,0c-1.2,0-2.4,0.1-3.6,0.2
			c-1,0.1-1.9,0.4-2.8,0.8c-0.8,0.4-1.4,1-1.9,1.7c-0.5,0.8-0.7,1.8-0.7,2.8c-0.1,1.1,0.2,2.1,0.8,3c0.5,0.7,1.2,1.3,2,1.7
			c0.9,0.4,1.8,0.6,2.8,0.7c1,0.1,2,0.2,2.9,0.2h1.1h1.1l1.4-0.1l1.9-0.2L148.6,411.2z"/>
		<path class="st0" d="M180,424v-16.7c0-0.7,0-1.4,0-2.2c0-0.7-0.2-1.5-0.6-2.1c-0.3-0.7-0.9-1.2-1.5-1.6c-0.9-0.5-1.9-0.7-2.9-0.6
			c-0.8,0-1.5,0.1-2.3,0.3c-0.8,0.2-1.7,0.4-2.5,0.7c-0.8,0.3-1.6,0.6-2.4,0.9l-1.9,0.8V424h-3.7v-26h3.4v2.8l3.7-1.7
			c0.9-0.4,1.8-0.7,2.7-1c0.8-0.2,1.5-0.4,2.3-0.5c0.8-0.1,1.6-0.2,2.4-0.2c0.9,0,1.7,0.1,2.6,0.4c0.9,0.3,1.7,0.7,2.3,1.3
			c0.7,0.7,1.3,1.5,1.7,2.4c0.5,1.1,0.7,2.3,0.6,3.5V424H180z"/>
		<path class="st0" d="M212,423.9c-1,0.2-2,0.4-3,0.5c-1,0-2,0.1-3.1,0.1c-1.9,0-3.8-0.3-5.6-0.9c-1.6-0.5-3.1-1.4-4.3-2.6
			c-1.2-1.2-2.2-2.7-2.8-4.4c-0.7-2-1-4.1-1-6.1c0-1.9,0.3-3.8,1-5.5c0.6-1.5,1.6-2.9,2.8-4.1c1.2-1.1,2.7-2,4.2-2.5
			c1.7-0.6,3.5-0.9,5.3-0.9c1.3,0,2.4,0,3.4,0.1c1,0.1,1.9,0.2,2.8,0.4v2.9c-1.5-0.3-3-0.4-4.5-0.5c-1.4,0-2.9,0.2-4.3,0.5
			c-1.3,0.3-2.5,0.9-3.5,1.7c-1,0.9-1.8,1.9-2.3,3.2c-0.6,1.5-0.9,3.1-0.9,4.7c-0.2,3.1,0.9,6.1,3,8.3c2.2,1.9,5.1,2.9,8,2.7
			c1.6,0,3.2-0.2,4.7-0.4L212,423.9z"/>
		<path class="st0" d="M242.5,410.8c0,1.9-0.3,3.8-0.9,5.6c-0.6,1.6-1.5,3.1-2.6,4.3c-1.1,1.2-2.5,2.2-4,2.8c-1.6,0.7-3.3,1-5.1,1
			c-1.8,0-3.6-0.3-5.3-1c-1.5-0.6-2.9-1.6-3.9-2.8c-1.1-1.3-1.9-2.7-2.4-4.3c-0.6-1.8-0.9-3.7-0.8-5.6c-0.2-3.6,1-7.1,3.3-9.9
			c2.4-2.5,5.8-3.8,9.3-3.6c1.8,0,3.6,0.3,5.3,0.9c1.5,0.6,2.8,1.5,3.9,2.7c1.1,1.2,1.9,2.7,2.4,4.2
			C242.2,407,242.5,408.9,242.5,410.8z M238.4,410.8c0-1.5-0.2-3-0.5-4.4c-0.3-1.2-0.8-2.4-1.6-3.4c-0.7-0.9-1.6-1.7-2.6-2.2
			c-1.1-0.5-2.4-0.8-3.6-0.8c-2.4-0.1-4.8,0.9-6.3,2.9c-1.5,2.3-2.3,5-2.1,7.8c0,1.5,0.2,3,0.5,4.5c0.3,1.2,0.8,2.4,1.5,3.5
			c0.7,1,1.6,1.7,2.6,2.3c1.2,0.6,2.4,0.8,3.7,0.8c1.3,0,2.5-0.3,3.7-0.8c1-0.5,1.9-1.3,2.6-2.3c0.7-1.1,1.3-2.2,1.6-3.5
			C238.2,413.8,238.4,412.3,238.4,410.8z"/>
		<path class="st0" d="M287.1,423.9c-1,0.2-2,0.4-3,0.5c-1,0.1-2,0.1-3.1,0.1c-1.9,0-3.8-0.3-5.6-0.9c-1.6-0.5-3.1-1.4-4.3-2.6
			c-1.2-1.2-2.2-2.7-2.8-4.4c-0.7-2-1-4.1-1-6.1c0-1.9,0.3-3.8,1-5.5c0.6-1.5,1.6-2.9,2.8-4.1c1.2-1.1,2.7-2,4.2-2.5
			c1.7-0.6,3.5-0.9,5.3-0.9c1.3,0,2.4,0,3.4,0.1c1,0.1,1.9,0.2,2.8,0.4v2.9c-1.5-0.3-3-0.4-4.5-0.5c-1.4,0-2.9,0.2-4.3,0.5
			c-1.3,0.3-2.5,0.9-3.5,1.7c-1,0.9-1.8,1.9-2.3,3.2c-0.6,1.5-0.9,3.1-0.9,4.7c-0.2,3.1,0.9,6.1,3,8.3c2.2,1.9,5.1,2.9,8,2.7
			c1.6,0,3.1-0.2,4.7-0.4L287.1,423.9z"/>
		<path class="st0" d="M296.7,412.1c0,1.9,0.5,3.8,1.4,5.5c0.7,1.2,1.6,2.2,2.8,2.9c1,0.6,2.2,1,3.4,1.1c1.1,0.1,2.2,0.2,3.3,0.2
			c1.1,0,2.3-0.1,3.4-0.2c1.1-0.1,2.1-0.3,3.1-0.5v2.6c-1.3,0.4-2.6,0.6-4,0.7c-1.3,0.1-2.7,0.1-4.1,0.1c-3.8,0.3-7.5-1.1-10.2-3.7
			c-2.5-2.9-3.7-6.6-3.5-10.4c0-2,0.3-4,1-5.9c0.5-1.5,1.4-2.9,2.5-4c1.1-1,2.3-1.8,3.7-2.3c1.5-0.5,3-0.8,4.5-0.7
			c1.9,0,3.7,0.3,5.5,1c1.5,0.6,2.7,1.5,3.7,2.8c1,1.3,1.7,2.8,2.1,4.4c0.5,1.9,0.7,3.8,0.7,5.7v0.8H296.7z M311.8,409.6
			c0-1.2-0.1-2.5-0.4-3.7c-0.2-1.1-0.6-2.1-1.2-3c-0.6-0.9-1.4-1.6-2.3-2.1c-1.1-0.6-2.4-0.8-3.7-0.8c-2.2-0.2-4.3,0.8-5.6,2.6
			c-1.3,2.1-1.9,4.5-1.8,6.9H311.8z"/>
		<path class="st0" d="M337.9,401.4c-1.9,0-3.7,0.1-5.6,0.4c-1.6,0.2-3.1,0.9-4.4,1.9V424h-3.8v-26h3.4v2.9c0.9-0.6,1.8-1.2,2.8-1.7
			c0.8-0.4,1.6-0.7,2.5-0.9c0.8-0.2,1.6-0.3,2.4-0.4c0.8,0,1.7,0,2.6,0L337.9,401.4z"/>
		<path class="st0" d="M361.1,423.9c-1,0.2-2,0.4-3,0.5c-1,0.1-2,0.1-3.1,0.1c-1.9,0-3.8-0.3-5.6-0.9c-1.6-0.5-3.1-1.4-4.3-2.6
			c-1.2-1.2-2.2-2.7-2.8-4.4c-0.7-2-1-4.1-0.9-6.2c0-1.9,0.3-3.8,1-5.5c0.6-1.5,1.6-2.9,2.8-4.1c1.2-1.1,2.7-2,4.2-2.5
			c1.7-0.6,3.5-0.9,5.2-0.9c1.3,0,2.4,0,3.4,0.1c1,0.1,1.9,0.2,2.8,0.4v2.9c-1.5-0.3-3-0.4-4.5-0.5c-1.4,0-2.9,0.2-4.3,0.5
			c-1.3,0.3-2.5,0.9-3.5,1.7c-1,0.9-1.8,1.9-2.3,3.2c-0.6,1.5-0.9,3.1-0.9,4.7c-0.2,3.1,0.9,6.1,3,8.3c2.2,1.9,5.1,2.9,8,2.7
			c1.6,0,3.1-0.2,4.7-0.4L361.1,423.9z"/>
		<path class="st0" d="M388,424c-2,0.2-3.8,0.4-5.5,0.4c-1.7,0.1-3.4,0.1-5.2,0.1c-1.5,0-3-0.1-4.5-0.3c-1.2-0.2-2.4-0.6-3.4-1.3
			c-0.9-0.6-1.7-1.5-2.2-2.5c-0.6-1.3-0.8-2.7-0.8-4.2c-0.3-3,1.5-5.8,4.4-6.8c1.4-0.5,2.8-0.8,4.2-0.9c1.5-0.1,3-0.2,4.4-0.2
			c0.7,0,1.4,0,2.2,0s1.7,0,2.6,0c0-1.7,0-3.1-0.1-4.1c0-0.9-0.3-1.8-0.9-2.5c-0.6-0.7-1.5-1.1-2.4-1.3c-1.5-0.3-3.1-0.4-4.6-0.3
			c-1.4,0-2.8,0.1-4.2,0.3l-3.8,0.6v-2.9c2.8-0.6,5.6-0.8,8.5-0.8c1.6,0,3.2,0.1,4.8,0.3c1.2,0.1,2.4,0.5,3.5,1.1
			c1,0.6,1.7,1.5,2.2,2.5c0.6,1.4,0.8,2.9,0.8,4.4L388,424z M384.3,411.2c-1.2,0-2.3,0-3.1,0c-0.8,0-1.5,0-1.9,0
			c-1.2,0-2.4,0.1-3.6,0.2c-1,0.1-1.9,0.4-2.8,0.8c-0.8,0.4-1.4,1-1.9,1.7c-0.5,0.8-0.7,1.8-0.7,2.8c-0.1,1.1,0.2,2.1,0.8,3
			c0.5,0.7,1.2,1.3,2,1.7c0.9,0.4,1.8,0.6,2.8,0.7c1,0.1,2,0.2,2.9,0.2h1h1.1l1.4-0.1l1.9-0.2L384.3,411.2z"/>
		<path class="st0" d="M401.1,430.1h-2.3v-10.9h4.9L401.1,430.1z"/>
		<path class="st0" d="M450.4,416.4c0.1,2.3-1,4.5-2.8,5.8c-2.5,1.6-5.5,2.4-8.5,2.2c-1.4,0-2.9-0.1-4.3-0.3
			c-1.3-0.1-2.6-0.4-3.9-0.6v-3c1.1,0.3,2.3,0.5,3.7,0.7c1.3,0.2,2.6,0.3,3.9,0.3c0.9,0,1.8-0.1,2.7-0.2c0.9-0.1,1.7-0.4,2.5-0.7
			c0.7-0.3,1.4-0.8,1.9-1.4c0.5-0.6,0.8-1.4,0.7-2.2c0-0.9-0.3-1.8-0.9-2.4c-0.6-0.6-1.3-1.1-2.1-1.4c-0.9-0.4-1.8-0.6-2.7-0.8
			c-1-0.2-1.8-0.4-2.5-0.6c-0.9-0.2-1.8-0.5-2.6-0.8c-0.8-0.3-1.6-0.8-2.3-1.3c-0.7-0.5-1.3-1.2-1.7-2c-0.5-0.9-0.7-2-0.6-3
			c0-1.2,0.3-2.5,0.8-3.5c0.6-0.9,1.3-1.7,2.3-2.3c1-0.6,2.1-1,3.2-1.2c1.2-0.3,2.5-0.4,3.8-0.4c1.6,0,3.1,0.1,4.7,0.3
			c1.3,0.2,2.3,0.3,3.1,0.4v2.9c-0.8-0.2-1.9-0.3-3.1-0.5c-1.3-0.2-2.5-0.3-3.8-0.3c-0.8,0-1.5,0.1-2.3,0.2
			c-0.8,0.1-1.6,0.3-2.3,0.6c-0.7,0.3-1.3,0.7-1.8,1.3c-0.5,0.6-0.8,1.4-0.7,2.2c0,0.7,0.2,1.5,0.7,2c0.5,0.5,1.1,0.9,1.7,1.3
			c0.7,0.3,1.4,0.6,2.2,0.7l2,0.4c1,0.2,2.1,0.5,3.2,0.8c1,0.3,2,0.7,3,1.3c0.9,0.5,1.6,1.3,2.2,2.1
			C450.1,414.1,450.4,415.3,450.4,416.4z"/>
		<path class="st0" d="M458.6,391.3v-4.5h4.4v4.5L458.6,391.3z M458.9,423.9v-26h3.8v26L458.9,423.9z"/>
		<path class="st0" d="M475.8,412.1c0,1.9,0.5,3.8,1.4,5.5c0.7,1.2,1.6,2.2,2.8,2.9c1,0.6,2.2,1,3.4,1.1c1.1,0.1,2.2,0.2,3.3,0.2
			c1.1,0,2.3-0.1,3.4-0.2c1.1-0.1,2.1-0.3,3.1-0.5v2.6c-1.3,0.4-2.6,0.6-4,0.7c-1.3,0.1-2.7,0.1-4.1,0.1c-3.8,0.3-7.5-1.1-10.2-3.7
			c-2.4-2.9-3.7-6.6-3.4-10.4c-0.1-2,0.3-4,0.9-5.9c0.5-1.5,1.4-2.9,2.5-4c1.1-1,2.3-1.8,3.7-2.3c1.5-0.5,3-0.8,4.5-0.7
			c1.9,0,3.7,0.3,5.5,1c1.5,0.6,2.7,1.5,3.7,2.8c1,1.3,1.7,2.8,2.1,4.4c0.5,1.9,0.7,3.8,0.7,5.7v0.8H475.8z M490.9,409.6
			c0-1.2-0.1-2.5-0.3-3.7c-0.2-1.1-0.6-2.1-1.2-3c-0.6-0.9-1.4-1.6-2.3-2.1c-1.1-0.6-2.4-0.8-3.7-0.8c-2.2-0.2-4.3,0.8-5.6,2.6
			c-1.3,2.1-1.9,4.5-1.8,6.9H490.9z"/>
		<path class="st0" d="M538.1,424h-3.8v-17.3c0-0.8,0-1.5,0-2.2c0-0.7-0.2-1.3-0.5-1.9c-0.3-0.6-0.8-1-1.4-1.3
			c-0.8-0.4-1.8-0.5-2.7-0.5c-0.7,0-1.3,0.1-2,0.2c-1.3,0.3-2.5,0.8-3.7,1.4l-1.5,0.8V424h-3.8v-17.3c0-0.8,0-1.5,0-2.3
			c0-0.7-0.2-1.3-0.5-1.9c-0.3-0.6-0.8-1-1.4-1.3c-0.9-0.4-1.8-0.5-2.7-0.5c-0.6,0-1.2,0.1-1.8,0.3c-0.6,0.2-1.3,0.4-1.9,0.6
			c-0.6,0.3-1.2,0.5-1.8,0.8l-1.6,0.8V424h-3.7v-26h3.3v2.8c1.1-0.7,2.1-1.2,3-1.7c0.8-0.4,1.6-0.7,2.4-1c0.7-0.2,1.3-0.4,2-0.5
			c0.6-0.1,1.3-0.1,1.9-0.1c1.2,0,2.4,0.2,3.5,0.7c1.1,0.5,1.9,1.4,2.4,2.5c1.6-0.9,3.3-1.7,5.1-2.4c1.4-0.5,2.8-0.8,4.3-0.8
			c1,0,1.9,0.1,2.8,0.4c0.8,0.2,1.6,0.7,2.2,1.3c0.7,0.7,1.2,1.4,1.5,2.3c0.4,1.1,0.5,2.3,0.5,3.6L538.1,424z"/>
		<path class="st0" d="M570.4,410.7c0,2.3-0.4,4.6-1.2,6.8c-0.7,1.9-2.1,3.6-3.9,4.7c-1.2,0.8-2.6,1.4-4,1.7
			c-1.3,0.3-2.7,0.5-4.1,0.5h-2.1c-1.2-0.1-2.3-0.2-3.5-0.4v10.9h-3.8V398l1.9-0.1l2.1-0.1l2.1-0.1c0.7,0,1.3,0,1.9,0
			c1.7,0,3.4,0.1,5.1,0.4c1.5,0.2,3,0.8,4.3,1.6c1,0.6,1.8,1.3,2.5,2.2c0.7,0.8,1.3,1.8,1.7,2.7c0.4,1,0.7,2,0.9,3
			C570.4,408.6,570.4,409.6,570.4,410.7z M566.3,410.7c0-3.6-0.9-6.2-2.7-7.8c-2-1.7-4.7-2.6-7.3-2.5h-1.7c-0.6,0-1.5,0.1-2.8,0.2
			v20.5l1.9,0.3l1.4,0.1c0.4,0,0.8,0,1.1,0h1c1.2,0,2.5-0.2,3.6-0.6c1.1-0.4,2.1-1,2.9-1.9c0.9-1,1.6-2.1,2-3.4
			C566.1,414,566.3,412.3,566.3,410.7L566.3,410.7z"/>
		<path class="st0" d="M592.3,401.4c-1.9,0-3.7,0.1-5.6,0.4c-1.6,0.2-3.1,0.9-4.4,1.9V424h-3.8v-26h3.4v2.9c0.9-0.6,1.8-1.2,2.8-1.7
			c0.8-0.4,1.6-0.7,2.5-0.9c0.8-0.2,1.6-0.3,2.4-0.4c0.8,0,1.7,0,2.6,0L592.3,401.4z"/>
		<path class="st0" d="M599.9,412.1c0,1.9,0.5,3.8,1.4,5.5c0.7,1.2,1.6,2.2,2.8,2.9c1,0.6,2.2,1,3.4,1.1c1.1,0.1,2.2,0.2,3.3,0.2
			c1.1,0,2.3-0.1,3.4-0.2c1.1-0.1,2.1-0.3,3.1-0.5v2.6c-1.3,0.4-2.6,0.6-4,0.7c-1.3,0.1-2.7,0.1-4.1,0.1c-3.8,0.3-7.5-1.1-10.2-3.7
			c-2.4-2.9-3.7-6.7-3.4-10.4c0-2,0.3-4,1-5.9c0.5-1.5,1.4-2.9,2.5-4c1.1-1,2.3-1.8,3.7-2.3c1.5-0.5,3-0.8,4.5-0.7
			c1.9,0,3.7,0.3,5.5,1c1.5,0.6,2.7,1.5,3.7,2.8c1,1.3,1.7,2.8,2.1,4.4c0.5,1.9,0.7,3.8,0.7,5.7v0.8H599.9z M615,409.6
			c0-1.2-0.1-2.5-0.3-3.7c-0.2-1.1-0.6-2.1-1.2-3c-0.6-0.9-1.4-1.6-2.3-2.1c-1.1-0.5-2.4-0.8-3.7-0.8c-2.2-0.2-4.3,0.8-5.6,2.6
			c-1.3,2.1-1.9,4.5-1.8,6.9H615z"/>
	</g>
</g>
</svg>
